<?xml version="1.0" encoding="UTF-8"?>
<svg width="48px" height="48px" viewBox="0 0 48 48" version="1.1" xmlns="http://www.w3.org/2000/svg" xmlns:xlink="http://www.w3.org/1999/xlink">
    <!-- Generator: Sketch 43.2 (39069) - http://www.bohemiancoding.com/sketch -->
    <title>通讯录－鼠标经过</title>
    <desc>Created with Sketch.</desc>
    <defs></defs>
    <g id="Page-1" stroke="none" stroke-width="1" fill="none" fill-rule="evenodd" opacity="0.399999976">
        <g id="Artboard" transform="translate(-165.000000, -206.000000)" stroke="#FFFFFF">
            <g id="左_鼠标滑过" transform="translate(156.000000, 34.000000)">
                <g id="左侧菜单_云盘" transform="translate(9.000000, 115.000000)">
                    <g id="左上－常态">
                        <g id="通讯录－常态" transform="translate(10.000000, 69.000000)">
                            <path d="M12.5152283,0.5 C15.5312857,0.5 18.0372945,3.69400539 18.0372944,7.67341491 C18.0372944,8.12185197 17.9434155,8.62175802 17.7623064,9.1680806 C17.5123621,9.92204673 17.1109538,10.7299963 16.5668262,11.6302232 C16.3156665,12.0457522 16.1094609,12.3644232 15.6962619,12.9871949 C15.0492484,13.9657744 14.883025,14.2479081 14.7583753,14.6579853 C14.3069882,16.185978 14.4246869,17.3216811 15.190602,18.0552495 C15.6936003,18.5557864 16.5166484,18.9809453 17.3234067,19.2905707 L23.3836437,21.6496417 C24.0953507,21.9075514 24.6034483,22.5700611 24.6034483,23.1938059 L24.6034483,23.8328852 C24.6034483,24.327282 24.1865477,24.6034483 23.5299551,24.6034483 L1.57353241,24.6034483 C0.916881039,24.6034483 0.5,24.3272949 0.5,23.8328852 L0.5,23.1938059 C0.5,22.5891182 1.01702857,21.9413532 1.7833005,21.6607695 L7.13954884,19.2754323 C8.1600349,18.9670149 9.14702912,18.5152929 9.68055885,17.9268279 C10.4423727,17.0618539 10.5491561,15.3233063 9.94608871,14.1556881 C9.89028111,14.0502311 9.56033504,13.5973071 9.47881895,13.4708501 C7.88282625,11.0446167 7.00064541,9.25898296 7.00064541,7.67341492 C7.00064541,3.69654333 9.50721453,0.5 12.5152283,0.5 Z" id="Shape"></path>
                            <path d="M20.7586207,7.24137931 L27.5172414,7.24137931" id="Line" stroke-linecap="square"></path>
                            <path d="M22.6896552,12.0609114 L27.5172414,12.0609114" id="Line" stroke-linecap="square"></path>
                            <path d="M24.6206897,15.9229803 L27.5172414,15.9229803" id="Line" stroke-linecap="square"></path>
                        </g>
                    </g>
                </g>
            </g>
        </g>
    </g>
</svg>