<?xml version="1.0" encoding="UTF-8"?>
<svg width="48px" height="48px" viewBox="0 0 48 48" version="1.1" xmlns="http://www.w3.org/2000/svg" xmlns:xlink="http://www.w3.org/1999/xlink">
    <!-- Generator: Sketch 43.2 (39069) - http://www.bohemiancoding.com/sketch -->
    <title>通讯录－点击</title>
    <desc>Created with Sketch.</desc>
    <defs></defs>
    <g id="Page-1" stroke="none" stroke-width="1" fill="none" fill-rule="evenodd">
        <g id="左侧栏_标注" transform="translate(-280.000000, -206.000000)">
            <g id="左_点击" transform="translate(271.000000, 34.000000)">
                <g id="teams">
                    <g id="左上－选中" transform="translate(9.000000, 115.000000)">
                        <g id="通讯录-选中" transform="translate(9.000000, 69.000000)">
                            <g id="Group">
                                <path d="M12.5152283,0 C9.20204187,0 6.50064541,3.44178048 6.50064541,7.67341492 C6.50064541,9.84204826 8.29060609,12.5743149 9.05856607,13.7417514 C9.25481686,14.0461979 9.43453381,14.2580107 9.50184441,14.3851375 C10.0177226,15.383946 9.91946012,16.8990921 9.31013848,17.5909875 C8.74892943,18.2099818 7.46234866,18.6576466 6.93604867,18.8187183 L1.6113799,21.1912556 C0.649598274,21.5434285 0,22.37357 0,23.1938059 L0,23.8328852 C0,24.7713212 0.845888268,25.1034483 1.57353241,25.1034483 L23.5299551,25.1034483 C24.2575208,25.1034483 25.1034483,24.7713213 25.1034483,23.8328852 L25.1034483,23.1938059 C25.1034483,22.3484735 24.45385,21.5056076 23.5650208,21.1836992 L17.5025604,18.8237689 C17.1879479,18.7030239 16.1004389,18.2552416 15.5364481,17.6941533 C14.9321414,17.1153681 14.8339573,16.1669875 15.2367631,14.8033991 C15.357593,14.405888 15.6420764,13.9757242 16.112898,13.2636263 C17.0192796,11.8975322 18.5372944,9.61073785 18.5372944,7.67341492 C18.5372945,3.44178052 15.8384055,0 12.5152283,0 L12.5152283,0 Z" id="Shape" fill="#30BA78"></path>
                                <path d="M20.7586207,7.24137931 L27.5172414,7.24137931" id="Line" stroke="#30BA78" stroke-linecap="square"></path>
                                <path d="M22.6896552,12.0609114 L27.5172414,12.0609114" id="Line" stroke="#30BA78" stroke-linecap="square"></path>
                                <path d="M24.6206897,15.9229803 L27.5172414,15.9229803" id="Line" stroke="#30BA78" stroke-linecap="square"></path>
                            </g>
                        </g>
                    </g>
                </g>
            </g>
        </g>
    </g>
</svg>